<svg width="150" height="149" viewBox="0 0 150 149" fill="none" xmlns="http://www.w3.org/2000/svg">
<path opacity="0.1" d="M135.97 74.56C135.97 65 128.22 57.25 118.66 57.25C117.97 57.25 117.29 57.3 116.62 57.38C115.39 44.36 104.44 34.17 91.1 34.17C84.36 34.17 78.24 36.77 73.66 41.02C67.76 35.2 59.66 31.61 50.71 31.61C33.04 31.61 18.65 45.63 18.05 63.16C18.03 63.31 18.02 63.48 18.02 63.66C18.03 82.08 32.95 97 51.36 97H114.06C124.63 97 133.25 89.48 135.51 79.57C135.97 77.56 135.97 75.76 135.97 74.56Z" fill="black"/>
<path opacity="0.1" d="M79.98 119.62L82.56 124.14C83.68 126.1 82.53 128.72 80.29 128.98C80.16 129 80.02 129 79.89 129C79.75 129 79.62 128.99 79.49 128.98C77.24 128.72 76.09 126.11 77.22 124.14L79.8 119.62C79.83 119.54 79.94 119.54 79.98 119.62Z" fill="black"/>
<path opacity="0.1" d="M85.1901 103.88L86.7401 106.59C87.4101 107.77 86.7201 109.33 85.3801 109.49C85.3001 109.5 85.2201 109.5 85.1401 109.5C85.0601 109.5 84.9801 109.5 84.9001 109.49C83.5501 109.33 82.8701 107.77 83.5401 106.59L85.0901 103.88C85.1001 103.84 85.1701 103.84 85.1901 103.88Z" fill="black"/>
<path opacity="0.1" d="M58.71 115.89L60.67 119.32C61.52 120.81 60.65 122.79 58.95 122.98C58.85 122.99 58.75 123 58.64 123C58.54 123 58.43 122.99 58.33 122.98C56.63 122.78 55.76 120.8 56.61 119.32L58.57 115.89C58.6 115.84 58.68 115.84 58.71 115.89Z" fill="black"/>
<path opacity="0.1" d="M71.47 106.19L74.45 111.4C75.74 113.66 74.42 116.67 71.83 116.97C71.68 116.99 71.52 117 71.36 117C71.2 117 71.05 116.99 70.89 116.97C68.3 116.67 66.98 113.66 68.27 111.4L71.25 106.19C71.3 106.11 71.42 106.11 71.47 106.19Z" fill="black"/>
<path opacity="0.1" d="M92.79 113.18L95.22 117.43C96.28 119.28 95.2 121.73 93.08 121.98C92.96 121.99 92.83 122 92.7 122C92.57 122 92.44 121.99 92.32 121.98C90.21 121.73 89.13 119.28 90.18 117.43L92.61 113.18C92.65 113.11 92.75 113.11 92.79 113.18Z" fill="black"/>
<path opacity="0.1" d="M101.5 110C102.328 110 103 109.328 103 108.5C103 107.672 102.328 107 101.5 107C100.672 107 100 107.672 100 108.5C100 109.328 100.672 110 101.5 110Z" fill="black"/>
<path opacity="0.1" d="M55 109C56.1046 109 57 108.105 57 107C57 105.895 56.1046 105 55 105C53.8954 105 53 105.895 53 107C53 108.105 53.8954 109 55 109Z" fill="black"/>
<path d="M133.97 71.56C133.97 62 126.22 54.25 116.66 54.25C115.97 54.25 115.29 54.3 114.62 54.38C113.39 41.36 102.44 31.17 89.1 31.17C82.36 31.17 76.24 33.77 71.66 38.02C65.76 32.2 57.66 28.61 48.71 28.61C31.04 28.61 16.65 42.63 16.05 60.16C16.03 60.31 16.02 60.48 16.02 60.66C16.03 79.08 30.95 94 49.36 94H112.06C122.63 94 131.25 86.48 133.51 76.57C133.97 74.56 133.97 72.76 133.97 71.56Z" fill="url(#paint0_linear)"/>
<path d="M77.98 116.62L80.56 121.14C81.68 123.1 80.53 125.72 78.29 125.98C78.16 126 78.02 126 77.89 126C77.75 126 77.62 125.99 77.49 125.98C75.24 125.72 74.09 123.11 75.22 121.14L77.8 116.62C77.83 116.54 77.94 116.54 77.98 116.62Z" fill="url(#paint1_linear)"/>
<path d="M83.1901 100.88L84.7401 103.59C85.4101 104.77 84.7201 106.33 83.3801 106.49C83.3001 106.5 83.2201 106.5 83.1401 106.5C83.0601 106.5 82.9801 106.5 82.9001 106.49C81.5501 106.33 80.8701 104.77 81.5401 103.59L83.0901 100.88C83.1001 100.84 83.1701 100.84 83.1901 100.88Z" fill="url(#paint2_linear)"/>
<path d="M56.71 112.89L58.67 116.32C59.52 117.81 58.65 119.79 56.95 119.98C56.85 119.99 56.75 120 56.64 120C56.54 120 56.43 119.99 56.33 119.98C54.63 119.78 53.76 117.8 54.61 116.32L56.57 112.89C56.6 112.84 56.68 112.84 56.71 112.89Z" fill="url(#paint3_linear)"/>
<path d="M69.47 103.19L72.45 108.4C73.74 110.66 72.42 113.67 69.83 113.97C69.68 113.99 69.52 114 69.36 114C69.2 114 69.05 113.99 68.89 113.97C66.3 113.67 64.98 110.66 66.27 108.4L69.25 103.19C69.3 103.11 69.42 103.11 69.47 103.19Z" fill="url(#paint4_linear)"/>
<path d="M90.79 110.18L93.22 114.43C94.28 116.28 93.2 118.73 91.08 118.98C90.96 118.99 90.83 119 90.7 119C90.57 119 90.44 118.99 90.32 118.98C88.21 118.73 87.13 116.28 88.18 114.43L90.61 110.18C90.65 110.11 90.75 110.11 90.79 110.18Z" fill="url(#paint5_linear)"/>
<path d="M99.5 107C100.328 107 101 106.328 101 105.5C101 104.672 100.328 104 99.5 104C98.6716 104 98 104.672 98 105.5C98 106.328 98.6716 107 99.5 107Z" fill="url(#paint6_linear)"/>
<path d="M53 106C54.1046 106 55 105.105 55 104C55 102.895 54.1046 102 53 102C51.8954 102 51 102.895 51 104C51 105.105 51.8954 106 53 106Z" fill="url(#paint7_linear)"/>
<defs>
<linearGradient id="paint0_linear" x1="75" y1="94" x2="75" y2="28.6169" gradientUnits="userSpaceOnUse">
<stop stop-color="#CCCCCC"/>
<stop offset="0.9993" stop-color="#F2F2F2"/>
</linearGradient>
<linearGradient id="paint1_linear" x1="77.8856" y1="126" x2="77.8856" y2="116.563" gradientUnits="userSpaceOnUse">
<stop stop-color="#78D8F6"/>
<stop offset="0.9993" stop-color="#E3FFFF"/>
</linearGradient>
<linearGradient id="paint2_linear" x1="83.1357" y1="106.5" x2="83.1357" y2="100.851" gradientUnits="userSpaceOnUse">
<stop stop-color="#78D8F6"/>
<stop offset="0.9993" stop-color="#E3FFFF"/>
</linearGradient>
<linearGradient id="paint3_linear" x1="56.6406" y1="120" x2="56.6406" y2="112.851" gradientUnits="userSpaceOnUse">
<stop stop-color="#78D8F6"/>
<stop offset="0.9993" stop-color="#E3FFFF"/>
</linearGradient>
<linearGradient id="paint4_linear" x1="69.3591" y1="114" x2="69.3591" y2="103.128" gradientUnits="userSpaceOnUse">
<stop stop-color="#78D8F6"/>
<stop offset="0.9993" stop-color="#E3FFFF"/>
</linearGradient>
<linearGradient id="paint5_linear" x1="90.6991" y1="119" x2="90.6991" y2="110.128" gradientUnits="userSpaceOnUse">
<stop stop-color="#78D8F6"/>
<stop offset="0.9993" stop-color="#E3FFFF"/>
</linearGradient>
<linearGradient id="paint6_linear" x1="99.5" y1="107" x2="99.5" y2="104" gradientUnits="userSpaceOnUse">
<stop stop-color="#78D8F6"/>
<stop offset="0.9993" stop-color="#E3FFFF"/>
</linearGradient>
<linearGradient id="paint7_linear" x1="53" y1="106" x2="53" y2="102" gradientUnits="userSpaceOnUse">
<stop stop-color="#78D8F6"/>
<stop offset="0.9993" stop-color="#E3FFFF"/>
</linearGradient>
</defs>
</svg>
