<svg width="150" height="149" viewBox="0 0 150 149" fill="none" xmlns="http://www.w3.org/2000/svg">
<path opacity="0.1" d="M100.65 74.13C114.66 74.13 126.01 62.78 126.01 48.77C126.01 34.76 114.66 23.41 100.65 23.41C86.64 23.41 75.29 34.76 75.29 48.77C75.29 62.78 86.64 74.13 100.65 74.13Z" fill="black"/>
<path opacity="0.1" d="M131 77.66C131 68.66 123.71 61.37 114.71 61.37C114.06 61.37 113.42 61.42 112.79 61.49C111.64 49.24 101.32 39.65 88.77 39.65C82.43 39.65 76.67 42.1 72.36 46.1C66.81 40.62 59.18 37.24 50.76 37.24C34.13 37.24 20.59 50.44 20.02 66.93C20 67.08 19.99 67.23 19.99 67.4C19.99 84.72 34.03 98.77 51.36 98.77H110.37C120.31 98.77 128.43 91.69 130.56 82.37C131 80.48 131 78.79 131 77.66Z" fill="black"/>
<path opacity="0.1" d="M79.98 120.21L82.56 124.73C83.68 126.69 82.53 129.31 80.29 129.57C80.16 129.59 80.02 129.59 79.89 129.59C79.75 129.59 79.62 129.58 79.49 129.57C77.24 129.31 76.09 126.7 77.22 124.73L79.8 120.21C79.83 120.14 79.94 120.14 79.98 120.21Z" fill="black"/>
<path opacity="0.1" d="M85.19 104.48L86.7399 107.19C87.4099 108.37 86.7199 109.93 85.3799 110.09C85.2999 110.1 85.2199 110.1 85.1399 110.1C85.0599 110.1 84.9799 110.1 84.8999 110.09C83.5499 109.93 82.8699 108.37 83.5399 107.19L85.0899 104.48C85.0999 104.43 85.17 104.43 85.19 104.48Z" fill="black"/>
<path opacity="0.1" d="M58.71 116.48L60.67 119.91C61.52 121.4 60.65 123.38 58.95 123.57C58.85 123.58 58.75 123.59 58.64 123.59C58.54 123.59 58.43 123.58 58.33 123.57C56.63 123.37 55.76 121.39 56.61 119.91L58.57 116.48C58.6 116.43 58.68 116.43 58.71 116.48Z" fill="black"/>
<path opacity="0.1" d="M71.47 106.78L74.45 111.99C75.74 114.25 74.42 117.26 71.83 117.56C71.68 117.58 71.52 117.59 71.36 117.59C71.2 117.59 71.05 117.58 70.89 117.56C68.3 117.26 66.98 114.25 68.27 111.99L71.25 106.78C71.3 106.7 71.42 106.7 71.47 106.78Z" fill="black"/>
<path opacity="0.1" d="M92.79 113.77L95.22 118.02C96.28 119.87 95.2 122.32 93.08 122.57C92.96 122.58 92.83 122.59 92.7 122.59C92.57 122.59 92.44 122.58 92.32 122.57C90.21 122.32 89.13 119.87 90.18 118.02L92.61 113.77C92.65 113.7 92.75 113.7 92.79 113.77Z" fill="black"/>
<path opacity="0.1" d="M101.5 110.59C102.328 110.59 103 109.918 103 109.09C103 108.262 102.328 107.59 101.5 107.59C100.672 107.59 100 108.262 100 109.09C100 109.918 100.672 110.59 101.5 110.59Z" fill="black"/>
<path opacity="0.1" d="M55 109.59C56.1046 109.59 57 108.695 57 107.59C57 106.485 56.1046 105.59 55 105.59C53.8954 105.59 53 106.485 53 107.59C53 108.695 53.8954 109.59 55 109.59Z" fill="black"/>
<path d="M98.65 71.13C112.66 71.13 124.01 59.78 124.01 45.77C124.01 31.76 112.66 20.41 98.65 20.41C84.64 20.41 73.29 31.76 73.29 45.77C73.29 59.78 84.64 71.13 98.65 71.13Z" fill="url(#paint0_linear)"/>
<path d="M129 74.66C129 65.66 121.71 58.37 112.71 58.37C112.06 58.37 111.42 58.42 110.79 58.49C109.64 46.24 99.32 36.65 86.77 36.65C80.43 36.65 74.67 39.1 70.36 43.1C64.81 37.62 57.18 34.24 48.76 34.24C32.13 34.24 18.59 47.44 18.02 63.93C18 64.08 17.99 64.23 17.99 64.4C17.99 81.72 32.03 95.77 49.36 95.77H108.37C118.31 95.77 126.43 88.69 128.56 79.37C129 77.48 129 75.79 129 74.66Z" fill="url(#paint1_linear)"/>
<path d="M77.98 117.21L80.56 121.73C81.68 123.69 80.53 126.31 78.29 126.57C78.16 126.59 78.02 126.59 77.89 126.59C77.75 126.59 77.62 126.58 77.49 126.57C75.24 126.31 74.09 123.7 75.22 121.73L77.8 117.21C77.83 117.14 77.94 117.14 77.98 117.21Z" fill="url(#paint2_linear)"/>
<path d="M83.19 101.48L84.7399 104.19C85.4099 105.37 84.7199 106.93 83.3799 107.09C83.2999 107.1 83.2199 107.1 83.1399 107.1C83.0599 107.1 82.9799 107.1 82.8999 107.09C81.5499 106.93 80.8699 105.37 81.5399 104.19L83.0899 101.48C83.0999 101.43 83.17 101.43 83.19 101.48Z" fill="url(#paint3_linear)"/>
<path d="M56.71 113.48L58.67 116.91C59.52 118.4 58.65 120.38 56.95 120.57C56.85 120.58 56.75 120.59 56.64 120.59C56.54 120.59 56.43 120.58 56.33 120.57C54.63 120.37 53.76 118.39 54.61 116.91L56.57 113.48C56.6 113.43 56.68 113.43 56.71 113.48Z" fill="url(#paint4_linear)"/>
<path d="M69.47 103.78L72.45 108.99C73.74 111.25 72.42 114.26 69.83 114.56C69.68 114.58 69.52 114.59 69.36 114.59C69.2 114.59 69.05 114.58 68.89 114.56C66.3 114.26 64.98 111.25 66.27 108.99L69.25 103.78C69.3 103.7 69.42 103.7 69.47 103.78Z" fill="url(#paint5_linear)"/>
<path d="M90.79 110.77L93.22 115.02C94.28 116.87 93.2 119.32 91.08 119.57C90.96 119.58 90.83 119.59 90.7 119.59C90.57 119.59 90.44 119.58 90.32 119.57C88.21 119.32 87.13 116.87 88.18 115.02L90.61 110.77C90.65 110.7 90.75 110.7 90.79 110.77Z" fill="url(#paint6_linear)"/>
<path d="M99.5 107.59C100.328 107.59 101 106.918 101 106.09C101 105.262 100.328 104.59 99.5 104.59C98.6716 104.59 98 105.262 98 106.09C98 106.918 98.6716 107.59 99.5 107.59Z" fill="url(#paint7_linear)"/>
<path d="M53 106.59C54.1046 106.59 55 105.695 55 104.59C55 103.485 54.1046 102.59 53 102.59C51.8954 102.59 51 103.485 51 104.59C51 105.695 51.8954 106.59 53 106.59Z" fill="url(#paint8_linear)"/>
<defs>
<linearGradient id="paint0_linear" x1="98.6494" y1="71.131" x2="98.6494" y2="20.4081" gradientUnits="userSpaceOnUse">
<stop stop-color="#F18A24"/>
<stop offset="0.9993" stop-color="#FBC53B"/>
</linearGradient>
<linearGradient id="paint1_linear" x1="73.5" y1="95.7756" x2="73.5" y2="34.243" gradientUnits="userSpaceOnUse">
<stop stop-color="#CCCCCC"/>
<stop offset="0.9993" stop-color="#F2F2F2"/>
</linearGradient>
<linearGradient id="paint2_linear" x1="77.8856" y1="126.592" x2="77.8856" y2="117.155" gradientUnits="userSpaceOnUse">
<stop stop-color="#78D8F6"/>
<stop offset="0.9993" stop-color="#E3FFFF"/>
</linearGradient>
<linearGradient id="paint3_linear" x1="83.1355" y1="107.092" x2="83.1355" y2="101.442" gradientUnits="userSpaceOnUse">
<stop stop-color="#78D8F6"/>
<stop offset="0.9993" stop-color="#E3FFFF"/>
</linearGradient>
<linearGradient id="paint4_linear" x1="56.6406" y1="120.592" x2="56.6406" y2="113.442" gradientUnits="userSpaceOnUse">
<stop stop-color="#78D8F6"/>
<stop offset="0.9993" stop-color="#E3FFFF"/>
</linearGradient>
<linearGradient id="paint5_linear" x1="69.3591" y1="114.592" x2="69.3591" y2="103.72" gradientUnits="userSpaceOnUse">
<stop stop-color="#78D8F6"/>
<stop offset="0.9993" stop-color="#E3FFFF"/>
</linearGradient>
<linearGradient id="paint6_linear" x1="90.6991" y1="119.592" x2="90.6991" y2="110.72" gradientUnits="userSpaceOnUse">
<stop stop-color="#78D8F6"/>
<stop offset="0.9993" stop-color="#E3FFFF"/>
</linearGradient>
<linearGradient id="paint7_linear" x1="99.5" y1="107.592" x2="99.5" y2="104.592" gradientUnits="userSpaceOnUse">
<stop stop-color="#78D8F6"/>
<stop offset="0.9993" stop-color="#E3FFFF"/>
</linearGradient>
<linearGradient id="paint8_linear" x1="53" y1="106.592" x2="53" y2="102.592" gradientUnits="userSpaceOnUse">
<stop stop-color="#78D8F6"/>
<stop offset="0.9993" stop-color="#E3FFFF"/>
</linearGradient>
</defs>
</svg>
