<svg width="150" height="149" viewBox="0 0 150 149" fill="none" xmlns="http://www.w3.org/2000/svg">
<path opacity="0.1" d="M127.38 57.88C126.89 57.88 126.41 57.92 125.93 57.97C125.06 48.73 117.28 41.5 107.82 41.5C103.04 41.5 98.69 43.35 95.44 46.36C91.25 42.23 85.5 39.68 79.15 39.68C70.46 39.68 62.89 44.46 58.92 51.53C54.45 49.24 49.39 47.93 44.02 47.93C26.35 47.93 11.96 61.95 11.36 79.48C11.34 79.63 11.33 79.8 11.33 79.98C11.33 98.39 26.25 113.31 44.66 113.31H107.36C117.93 113.31 126.55 105.79 128.81 95.88C129.27 93.87 129.27 92.07 129.27 90.88C129.27 88.99 128.96 87.17 128.4 85.47C133.87 83.88 138.05 79.35 139.34 73.71C139.67 72.29 139.67 71.01 139.67 70.16C139.67 63.38 134.17 57.88 127.38 57.88Z" fill="black"/>
<path d="M137.67 67.16C137.67 60.38 132.17 54.88 125.39 54.88C124.9 54.88 124.42 54.92 123.94 54.97C123.07 45.73 115.29 38.5 105.83 38.5C101.05 38.5 96.7 40.35 93.45 43.36C89.26 39.23 83.51 36.68 77.16 36.68C64.62 36.68 54.41 46.63 53.98 59.07C53.97 59.18 53.96 59.29 53.96 59.43C53.96 72.5 64.55 83.09 77.62 83.09H122.12C129.62 83.09 135.74 77.75 137.34 70.72C137.67 69.29 137.67 68.01 137.67 67.16Z" fill="url(#paint0_linear)"/>
<path d="M127.28 87.88C127.28 78.32 119.53 70.57 109.97 70.57C109.28 70.57 108.6 70.62 107.93 70.7C106.71 57.69 95.75 47.5 82.41 47.5C75.67 47.5 69.55 50.1 64.97 54.35C59.07 48.53 50.97 44.94 42.02 44.94C24.35 44.94 9.96002 58.96 9.36002 76.49C9.34002 76.64 9.33002 76.81 9.33002 76.99C9.33002 95.4 24.25 110.32 42.66 110.32H105.36C115.93 110.32 124.55 102.8 126.81 92.89C127.28 90.88 127.28 89.08 127.28 87.88Z" fill="url(#paint1_linear)"/>
<defs>
<linearGradient id="paint0_linear" x1="95.8098" y1="83.0878" x2="95.8098" y2="36.6819" gradientUnits="userSpaceOnUse">
<stop stop-color="#CCCCCC"/>
<stop offset="0.9993" stop-color="#F2F2F2"/>
</linearGradient>
<linearGradient id="paint1_linear" x1="68.3069" y1="110.318" x2="68.3069" y2="44.935" gradientUnits="userSpaceOnUse">
<stop stop-color="#CCCCCC"/>
<stop offset="0.9993" stop-color="#F2F2F2"/>
</linearGradient>
</defs>
</svg>
