<svg width="150" height="149" viewBox="0 0 150 149" fill="none" xmlns="http://www.w3.org/2000/svg">
<path opacity="0.1" d="M105.75 92.18C122.59 92.18 136.25 78.52 136.25 61.68C136.25 44.84 122.59 31.18 105.75 31.18C88.91 31.18 75.25 44.84 75.25 61.68C75.25 78.53 88.9 92.18 105.75 92.18Z" fill="black"/>
<path opacity="0.1" d="M142.25 96.43C142.25 85.61 133.48 76.84 122.66 76.84C121.88 76.84 121.11 76.9 120.35 76.99C118.96 62.26 106.56 50.72 91.46 50.72C83.84 50.72 76.9 53.66 71.72 58.47C65.04 51.88 55.87 47.82 45.75 47.82C25.75 47.82 9.47 63.69 8.78 83.53C8.76 83.7 8.75 83.89 8.75 84.1C8.75 104.94 25.64 121.83 46.48 121.83H117.45C129.41 121.83 139.17 113.32 141.73 102.1C142.25 99.82 142.25 97.78 142.25 96.43Z" fill="black"/>
<path d="M103.75 89.18C120.59 89.18 134.25 75.52 134.25 58.68C134.25 41.84 120.59 28.18 103.75 28.18C86.91 28.18 73.25 41.84 73.25 58.68C73.25 75.53 86.9 89.18 103.75 89.18Z" fill="url(#paint0_linear)"/>
<path d="M140.25 93.43C140.25 82.61 131.48 73.84 120.66 73.84C119.88 73.84 119.11 73.9 118.35 73.99C116.96 59.26 104.56 47.72 89.46 47.72C81.84 47.72 74.9 50.66 69.72 55.47C63.04 48.88 53.87 44.82 43.75 44.82C23.75 44.82 7.47 60.69 6.78 80.53C6.76 80.7 6.75 80.89 6.75 81.1C6.75 101.94 23.64 118.83 44.48 118.83H115.45C127.41 118.83 137.17 110.32 139.73 99.1C140.25 96.82 140.25 94.78 140.25 93.43Z" fill="url(#paint1_linear)"/>
<defs>
<linearGradient id="paint0_linear" x1="103.745" y1="89.181" x2="103.745" y2="28.181" gradientUnits="userSpaceOnUse">
<stop stop-color="#F18A24"/>
<stop offset="0.9993" stop-color="#FBC53B"/>
</linearGradient>
<linearGradient id="paint1_linear" x1="73.5" y1="118.819" x2="73.5" y2="44.819" gradientUnits="userSpaceOnUse">
<stop stop-color="#CCCCCC"/>
<stop offset="0.9993" stop-color="#F2F2F2"/>
</linearGradient>
</defs>
</svg>
