<svg width="150" height="149" viewBox="0 0 150 149" fill="none" xmlns="http://www.w3.org/2000/svg">
<path opacity="0.1" d="M131.5 69.66C131.5 60.66 124.21 53.37 115.21 53.37C114.56 53.37 113.92 53.42 113.29 53.49C112.14 41.24 101.82 31.65 89.27 31.65C82.93 31.65 77.17 34.1 72.86 38.1C67.31 32.62 59.68 29.24 51.26 29.24C34.63 29.24 21.09 42.44 20.52 58.93C20.5 59.08 20.49 59.23 20.49 59.4C20.49 76.72 34.53 90.77 51.86 90.77H110.87C120.81 90.77 128.93 83.69 131.06 74.37C131.5 72.48 131.5 70.79 131.5 69.66Z" fill="black"/>
<path opacity="0.1" d="M63.5 115.5C63.11 115.5 62.71 115.39 62.37 115.15C61.46 114.52 61.23 113.28 61.85 112.37L70.7 99.5H64.5C63.75 99.5 63.06 99.08 62.72 98.41C62.38 97.74 62.44 96.94 62.88 96.33L75.88 78.33C76.53 77.44 77.77 77.23 78.67 77.88C79.57 78.53 79.77 79.78 79.12 80.67L68.41 95.5H74.5C75.24 95.5 75.92 95.91 76.27 96.57C76.62 97.23 76.57 98.02 76.15 98.63L65.15 114.63C64.76 115.2 64.13 115.5 63.5 115.5Z" fill="black"/>
<path opacity="0.1" d="M74.5 123.76C74.11 123.76 73.71 123.65 73.37 123.41C72.46 122.78 72.23 121.54 72.85 120.63L78.44 112.5H75.2C74.45 112.5 73.76 112.08 73.42 111.41C73.08 110.74 73.14 109.94 73.59 109.33L79.22 101.59C79.87 100.7 81.12 100.5 82.01 101.15C82.9 101.8 83.1 103.05 82.45 103.94L79.13 108.51H82.24C82.98 108.51 83.66 108.92 84.01 109.58C84.36 110.24 84.31 111.03 83.89 111.64L76.15 122.9C75.76 123.46 75.13 123.76 74.5 123.76Z" fill="black"/>
<path d="M129.5 66.66C129.5 57.66 122.21 50.37 113.21 50.37C112.56 50.37 111.92 50.42 111.29 50.49C110.14 38.24 99.82 28.65 87.27 28.65C80.93 28.65 75.17 31.1 70.86 35.1C65.31 29.62 57.68 26.24 49.26 26.24C32.63 26.24 19.09 39.44 18.52 55.93C18.5 56.08 18.49 56.23 18.49 56.4C18.49 73.72 32.53 87.77 49.86 87.77H108.87C118.81 87.77 126.93 80.69 129.06 71.37C129.5 69.48 129.5 67.79 129.5 66.66Z" fill="url(#paint0_linear)"/>
<path d="M61.5 112.5C61.11 112.5 60.71 112.39 60.37 112.15C59.46 111.52 59.23 110.28 59.85 109.37L68.7 96.5H62.5C61.75 96.5 61.06 96.08 60.72 95.41C60.38 94.74 60.44 93.94 60.88 93.33L73.88 75.33C74.53 74.44 75.77 74.23 76.67 74.88C77.57 75.53 77.77 76.78 77.12 77.67L66.41 92.5H72.5C73.24 92.5 73.92 92.91 74.27 93.57C74.62 94.23 74.57 95.02 74.15 95.63L63.15 111.63C62.76 112.2 62.13 112.5 61.5 112.5Z" fill="url(#paint1_linear)"/>
<path d="M72.5 120.76C72.11 120.76 71.71 120.65 71.37 120.41C70.46 119.78 70.23 118.54 70.85 117.63L76.44 109.5H73.2C72.45 109.5 71.76 109.08 71.42 108.41C71.08 107.74 71.14 106.94 71.59 106.33L77.22 98.59C77.87 97.7 79.12 97.5 80.01 98.15C80.9 98.8 81.1 100.05 80.45 100.94L77.13 105.51H80.24C80.98 105.51 81.66 105.92 82.01 106.58C82.36 107.24 82.31 108.03 81.89 108.64L74.15 119.9C73.76 120.46 73.13 120.76 72.5 120.76Z" fill="url(#paint2_linear)"/>
<defs>
<linearGradient id="paint0_linear" x1="74" y1="87.7746" x2="74" y2="26.242" gradientUnits="userSpaceOnUse">
<stop stop-color="#CCCCCC"/>
<stop offset="0.9993" stop-color="#F2F2F2"/>
</linearGradient>
<linearGradient id="paint1_linear" x1="68.5001" y1="112.499" x2="68.5001" y2="74.4995" gradientUnits="userSpaceOnUse">
<stop stop-color="#F18A24"/>
<stop offset="0.9993" stop-color="#FBC53B"/>
</linearGradient>
<linearGradient id="paint2_linear" x1="76.3707" y1="120.758" x2="76.3707" y2="97.7574" gradientUnits="userSpaceOnUse">
<stop stop-color="#F18A24"/>
<stop offset="0.9993" stop-color="#FBC53B"/>
</linearGradient>
</defs>
</svg>
