<svg width="150" height="149" viewBox="0 0 150 149" fill="none" xmlns="http://www.w3.org/2000/svg">
<path opacity="0.1" d="M131.5 73.79C131.5 64.79 124.21 57.5 115.21 57.5C114.56 57.5 113.92 57.55 113.29 57.62C112.14 45.37 101.82 35.78 89.27 35.78C82.93 35.78 77.17 38.23 72.86 42.23C67.31 36.75 59.68 33.37 51.26 33.37C34.63 33.37 21.09 46.57 20.52 63.06C20.5 63.21 20.49 63.36 20.49 63.53C20.49 80.85 34.53 94.9 51.86 94.9H110.87C120.81 94.9 128.93 87.82 131.06 78.5C131.5 76.61 131.5 74.92 131.5 73.79Z" fill="black"/>
<path opacity="0.1" d="M69.5 119.63C69.11 119.63 68.71 119.52 68.37 119.28C67.46 118.65 67.23 117.41 67.85 116.5L76.7 103.63H70.5C69.75 103.63 69.06 103.21 68.72 102.54C68.38 101.87 68.44 101.07 68.88 100.46L81.88 82.46C82.53 81.57 83.77 81.36 84.67 82.01C85.57 82.66 85.77 83.91 85.12 84.8L74.41 99.63H80.5C81.24 99.63 81.92 100.04 82.27 100.7C82.62 101.36 82.57 102.15 82.15 102.76L71.15 118.76C70.76 119.33 70.13 119.63 69.5 119.63Z" fill="black"/>
<path opacity="0.1" d="M100.3 98.24L102.61 102.28C103.61 104.04 102.59 106.37 100.58 106.6C100.46 106.61 100.34 106.62 100.22 106.62C100.1 106.62 99.98 106.61 99.86 106.6C97.85 106.37 96.82 104.03 97.83 102.28L100.14 98.24C100.17 98.18 100.26 98.18 100.3 98.24Z" fill="black"/>
<path opacity="0.1" d="M90.19 100.51L91.7399 103.22C92.4099 104.4 91.7199 105.96 90.3799 106.12C90.2999 106.13 90.2199 106.13 90.1399 106.13C90.0599 106.13 89.9799 106.13 89.8999 106.12C88.5499 105.96 87.8699 104.4 88.5399 103.22L90.0899 100.51C90.0999 100.47 90.17 100.47 90.19 100.51Z" fill="black"/>
<path opacity="0.1" d="M61.05 104.53L63.28 108.43C64.25 110.13 63.26 112.38 61.32 112.61C61.21 112.62 61.09 112.63 60.97 112.63C60.85 112.63 60.74 112.62 60.62 112.61C58.68 112.38 57.69 110.13 58.66 108.43L60.89 104.53C60.92 104.46 61.02 104.46 61.05 104.53Z" fill="black"/>
<path opacity="0.1" d="M83.47 109.8L85.64 113.6C86.58 115.25 85.62 117.44 83.73 117.66C83.62 117.67 83.51 117.68 83.39 117.68C83.28 117.68 83.16 117.67 83.05 117.66C81.16 117.44 80.2 115.25 81.14 113.6L83.31 109.8C83.34 109.74 83.43 109.74 83.47 109.8Z" fill="black"/>
<path opacity="0.1" d="M94.5 114.63C95.3284 114.63 96 113.958 96 113.13C96 112.302 95.3284 111.63 94.5 111.63C93.6716 111.63 93 112.302 93 113.13C93 113.958 93.6716 114.63 94.5 114.63Z" fill="black"/>
<path opacity="0.1" d="M51.5 113.63C52.3284 113.63 53 112.958 53 112.13C53 111.302 52.3284 110.63 51.5 110.63C50.6716 110.63 50 111.302 50 112.13C50 112.958 50.6716 113.63 51.5 113.63Z" fill="black"/>
<path opacity="0.1" d="M53 102.63C54.1046 102.63 55 101.735 55 100.63C55 99.5254 54.1046 98.63 53 98.63C51.8954 98.63 51 99.5254 51 100.63C51 101.735 51.8954 102.63 53 102.63Z" fill="black"/>
<path d="M129.5 70.79C129.5 61.79 122.21 54.5 113.21 54.5C112.56 54.5 111.92 54.55 111.29 54.62C110.14 42.37 99.82 32.78 87.27 32.78C80.93 32.78 75.17 35.23 70.86 39.23C65.31 33.75 57.68 30.37 49.26 30.37C32.63 30.37 19.09 43.57 18.52 60.06C18.5 60.21 18.49 60.36 18.49 60.53C18.49 77.85 32.53 91.9 49.86 91.9H108.87C118.81 91.9 126.93 84.82 129.06 75.5C129.5 73.61 129.5 71.92 129.5 70.79Z" fill="url(#paint0_linear)"/>
<path d="M67.5 116.63C67.11 116.63 66.71 116.52 66.37 116.28C65.46 115.65 65.23 114.41 65.85 113.5L74.7 100.63H68.5C67.75 100.63 67.06 100.21 66.72 99.54C66.38 98.87 66.44 98.07 66.88 97.46L79.88 79.46C80.53 78.57 81.77 78.36 82.67 79.01C83.57 79.66 83.77 80.91 83.12 81.8L72.41 96.63H78.5C79.24 96.63 79.92 97.04 80.27 97.7C80.62 98.36 80.57 99.15 80.15 99.76L69.15 115.76C68.76 116.33 68.13 116.63 67.5 116.63Z" fill="url(#paint1_linear)"/>
<path d="M98.3 95.24L100.61 99.28C101.61 101.04 100.59 103.37 98.58 103.6C98.46 103.61 98.34 103.62 98.22 103.62C98.1 103.62 97.98 103.61 97.86 103.6C95.85 103.37 94.82 101.03 95.83 99.28L98.14 95.24C98.17 95.18 98.26 95.18 98.3 95.24Z" fill="url(#paint2_linear)"/>
<path d="M88.19 97.51L89.7399 100.22C90.4099 101.4 89.7199 102.96 88.3799 103.12C88.2999 103.13 88.2199 103.13 88.1399 103.13C88.0599 103.13 87.9799 103.13 87.8999 103.12C86.5499 102.96 85.8699 101.4 86.5399 100.22L88.0899 97.51C88.0999 97.47 88.17 97.47 88.19 97.51Z" fill="url(#paint3_linear)"/>
<path d="M59.05 101.53L61.28 105.43C62.25 107.13 61.26 109.38 59.32 109.61C59.21 109.62 59.09 109.63 58.97 109.63C58.85 109.63 58.74 109.62 58.62 109.61C56.68 109.38 55.69 107.13 56.66 105.43L58.89 101.53C58.92 101.46 59.02 101.46 59.05 101.53Z" fill="url(#paint4_linear)"/>
<path d="M81.47 106.8L83.64 110.6C84.58 112.25 83.62 114.44 81.73 114.66C81.62 114.67 81.51 114.68 81.39 114.68C81.28 114.68 81.16 114.67 81.05 114.66C79.16 114.44 78.2 112.25 79.14 110.6L81.31 106.8C81.34 106.74 81.43 106.74 81.47 106.8Z" fill="url(#paint5_linear)"/>
<path d="M92.5 111.63C93.3284 111.63 94 110.958 94 110.13C94 109.302 93.3284 108.63 92.5 108.63C91.6716 108.63 91 109.302 91 110.13C91 110.958 91.6716 111.63 92.5 111.63Z" fill="url(#paint6_linear)"/>
<path d="M49.5 110.63C50.3284 110.63 51 109.958 51 109.13C51 108.302 50.3284 107.63 49.5 107.63C48.6716 107.63 48 108.302 48 109.13C48 109.958 48.6716 110.63 49.5 110.63Z" fill="url(#paint7_linear)"/>
<path d="M51 99.63C52.1046 99.63 53 98.7346 53 97.63C53 96.5254 52.1046 95.63 51 95.63C49.8954 95.63 49 96.5254 49 97.63C49 98.7346 49.8954 99.63 51 99.63Z" fill="url(#paint8_linear)"/>
<defs>
<linearGradient id="paint0_linear" x1="74" y1="91.904" x2="74" y2="30.3714" gradientUnits="userSpaceOnUse">
<stop stop-color="#CCCCCC"/>
<stop offset="0.9993" stop-color="#F2F2F2"/>
</linearGradient>
<linearGradient id="paint1_linear" x1="74.5001" y1="116.629" x2="74.5001" y2="78.6288" gradientUnits="userSpaceOnUse">
<stop stop-color="#F18A24"/>
<stop offset="0.9993" stop-color="#FBC53B"/>
</linearGradient>
<linearGradient id="paint2_linear" x1="98.2156" y1="103.63" x2="98.2156" y2="95.1922" gradientUnits="userSpaceOnUse">
<stop stop-color="#78D8F6"/>
<stop offset="0.9993" stop-color="#E3FFFF"/>
</linearGradient>
<linearGradient id="paint3_linear" x1="88.1355" y1="103.13" x2="88.1355" y2="97.48" gradientUnits="userSpaceOnUse">
<stop stop-color="#78D8F6"/>
<stop offset="0.9993" stop-color="#E3FFFF"/>
</linearGradient>
<linearGradient id="paint4_linear" x1="58.9706" y1="109.63" x2="58.9706" y2="101.48" gradientUnits="userSpaceOnUse">
<stop stop-color="#78D8F6"/>
<stop offset="0.9993" stop-color="#E3FFFF"/>
</linearGradient>
<linearGradient id="paint5_linear" x1="81.3856" y1="114.68" x2="81.3856" y2="106.757" gradientUnits="userSpaceOnUse">
<stop stop-color="#78D8F6"/>
<stop offset="0.9993" stop-color="#E3FFFF"/>
</linearGradient>
<linearGradient id="paint6_linear" x1="92.5" y1="111.63" x2="92.5" y2="108.63" gradientUnits="userSpaceOnUse">
<stop stop-color="#78D8F6"/>
<stop offset="0.9993" stop-color="#E3FFFF"/>
</linearGradient>
<linearGradient id="paint7_linear" x1="49.5" y1="110.63" x2="49.5" y2="107.63" gradientUnits="userSpaceOnUse">
<stop stop-color="#78D8F6"/>
<stop offset="0.9993" stop-color="#E3FFFF"/>
</linearGradient>
<linearGradient id="paint8_linear" x1="51" y1="99.6296" x2="51" y2="95.6296" gradientUnits="userSpaceOnUse">
<stop stop-color="#78D8F6"/>
<stop offset="0.9993" stop-color="#E3FFFF"/>
</linearGradient>
</defs>
</svg>
